<?xml version="1.0" standalone="no"?>
<!DOCTYPE svg PUBLIC "-//W3C//DTD SVG 20010904//EN"
 "http://www.w3.org/TR/2001/REC-SVG-20010904/DTD/svg10.dtd">
<svg version="1.0" xmlns="http://www.w3.org/2000/svg"
 width="580.000000pt" height="580.000000pt" viewBox="0 0 580.000000 580.000000"
 preserveAspectRatio="xMidYMid meet">
<metadata>
Created by potrace 1.11, written by Peter Selinger 2001-2013
</metadata>
<g transform="translate(0.000000,580.000000) scale(0.100000,-0.100000)"
fill="#000000" stroke="none">
<path d="M2870 5569 c-19 -5 -51 -16 -70 -23 -19 -8 -71 -22 -115 -31 -44 -10
-89 -24 -100 -31 -11 -8 -34 -14 -51 -14 -17 0 -37 -6 -43 -13 -6 -8 -30 -19
-53 -26 -24 -7 -54 -23 -68 -36 -14 -13 -58 -35 -99 -49 -41 -15 -87 -38 -103
-51 -16 -14 -35 -25 -41 -25 -6 0 -32 -18 -58 -40 -26 -22 -56 -40 -66 -40
-10 0 -34 -16 -52 -35 -18 -20 -48 -42 -66 -50 -19 -7 -41 -25 -50 -39 -22
-33 -168 -179 -200 -200 -14 -9 -25 -23 -25 -31 0 -8 -6 -15 -14 -15 -17 0
-56 -51 -56 -74 0 -27 39 0 55 37 8 19 20 31 34 32 11 1 21 -2 21 -7 0 -31
-66 -107 -115 -134 -36 -19 -47 -44 -19 -44 11 0 14 -5 9 -17 -4 -10 -9 -33
-12 -50 -5 -30 -3 -33 21 -33 15 0 29 7 32 15 3 8 21 30 40 50 29 32 34 34 34
16 0 -13 6 -21 16 -21 20 0 94 79 94 101 0 9 7 22 15 29 23 19 19 43 -5 35
-37 -12 -22 24 31 73 115 107 134 122 144 119 5 -2 18 7 28 20 19 24 197 156
245 182 14 8 42 15 62 17 19 1 47 7 61 12 23 9 28 7 39 -14 7 -13 21 -26 32
-30 10 -3 18 -11 18 -19 0 -7 11 -27 25 -43 22 -26 23 -30 9 -44 -21 -21 -1
-63 24 -53 45 19 52 18 52 -9 0 -18 4 -24 15 -20 11 5 15 -1 15 -20 0 -21 5
-26 25 -26 34 0 49 -36 29 -67 -8 -12 -14 -27 -14 -33 0 -16 55 -4 113 26 27
13 54 21 59 18 6 -4 -4 -13 -21 -20 -25 -10 -32 -19 -29 -36 2 -17 -5 -26 -27
-38 -28 -13 -28 -15 -8 -18 12 -2 31 2 42 7 11 6 33 11 50 11 16 0 42 5 58 12
15 6 37 11 48 10 16 -1 17 0 3 4 -10 3 -18 14 -18 25 0 17 8 19 85 19 70 0 85
-3 85 -15 0 -9 7 -18 16 -22 8 -3 13 -12 10 -20 -8 -19 22 -29 45 -15 24 16
29 15 29 -3 0 -9 -9 -15 -21 -15 -15 0 -19 -5 -15 -16 3 -8 -1 -31 -9 -50 -13
-31 -13 -34 4 -34 10 0 24 7 31 15 16 19 39 19 61 -1 15 -13 24 -14 50 -5 17
6 36 8 43 4 6 -4 40 -8 74 -10 50 -2 63 1 59 11 -4 9 4 15 24 18 16 3 29 1 29
-4 0 -4 5 -8 10 -8 6 0 10 6 10 13 0 7 13 21 30 30 22 14 34 15 49 7 13 -7 22
-7 26 0 10 16 25 1 25 -26 0 -13 4 -24 10 -24 25 0 73 -64 81 -108 6 -27 17
-51 29 -59 16 -11 18 -18 9 -34 -13 -25 -5 -49 27 -85 26 -27 35 -55 36 -104
0 -14 6 -32 13 -40 8 -8 13 -18 12 -22 -1 -4 6 -16 15 -28 10 -11 20 -38 23
-61 3 -23 8 -45 11 -51 4 -5 1 -21 -6 -34 -10 -18 -10 -26 -1 -38 10 -11 9
-26 -3 -67 -9 -29 -16 -62 -16 -74 0 -12 -10 -35 -22 -50 -12 -15 -29 -43 -39
-62 l-18 -35 52 -49 c28 -27 59 -52 69 -55 21 -6 31 -35 23 -67 -6 -22 -14
-26 -58 -32 -63 -9 -93 -20 -114 -41 -12 -11 -25 -14 -47 -9 -51 11 -270 24
-281 17 -22 -15 -81 -32 -109 -32 -40 0 -114 -37 -154 -77 -18 -18 -37 -33
-42 -33 -15 0 -90 -81 -111 -119 -21 -39 -24 -76 -10 -113 8 -23 -11 -217 -24
-238 -8 -13 13 -90 25 -90 19 0 41 -59 30 -79 -7 -14 -6 -20 5 -25 24 -9 18
-28 -32 -96 -27 -36 -57 -81 -68 -100 -16 -28 -27 -35 -50 -35 -25 0 -30 -4
-30 -25 0 -16 8 -28 25 -36 85 -40 100 -49 100 -62 0 -9 -7 -13 -19 -9 -17 4
-19 -2 -21 -52 -1 -31 -1 -60 0 -66 7 -74 5 -80 -19 -80 -14 0 -26 -5 -28 -11
-3 -9 137 -29 262 -37 l40 -2 7 -55 c12 -84 -10 -140 -53 -140 -10 0 -22 8
-28 18 -9 15 -13 15 -32 4 -14 -9 -37 -11 -70 -7 -32 5 -49 3 -49 -4 0 -7 -46
-10 -132 -10 -114 0 -134 3 -144 18 -9 13 -26 17 -71 16 -32 0 -60 -5 -62 -10
-4 -13 81 -44 139 -51 25 -3 99 -10 165 -15 72 -5 135 -15 158 -25 34 -16 37
-20 31 -49 -3 -20 -1 -35 8 -42 20 -17 75 -26 83 -14 12 21 35 11 35 -14 0
-26 14 -33 25 -15 4 7 16 1 30 -15 13 -14 33 -25 45 -25 23 0 27 -18 5 -26 -8
-4 -15 -12 -15 -20 0 -19 -19 -18 -26 1 -4 8 -10 12 -15 9 -5 -3 -7 -9 -4 -14
3 -5 1 -11 -4 -14 -5 -4 -12 -2 -16 4 -3 5 -18 10 -32 10 -16 0 -27 7 -30 20
-3 11 -9 18 -13 15 -5 -3 -6 -14 -3 -24 3 -11 0 -27 -5 -37 -9 -15 -12 -14
-26 14 -20 38 -30 41 -24 7 8 -39 -16 -51 -37 -19 -14 22 -22 25 -50 21 -23
-4 -38 -1 -46 9 -7 9 -19 12 -28 8 -9 -3 -36 -8 -60 -9 -27 -2 -50 -9 -57 -19
-16 -22 -31 -20 -54 7 -18 20 -29 23 -78 21 -31 -1 -60 -3 -64 -3 -4 -1 -9
-10 -13 -20 -7 -23 30 -71 55 -71 9 0 25 -9 35 -20 10 -11 24 -20 32 -20 15 0
18 -26 3 -35 -16 -10 -12 -58 4 -52 17 7 28 -16 20 -38 -4 -8 -14 -16 -23 -16
-9 -1 10 -5 43 -10 32 -5 65 -14 73 -21 9 -7 29 -11 46 -9 17 1 34 -3 39 -11
7 -10 11 -10 15 -1 9 25 45 -5 41 -35 -3 -25 -6 -27 -40 -24 -32 3 -38 0 -38
-15 0 -11 5 -24 11 -30 8 -8 7 -13 -2 -19 -8 -4 -17 0 -25 12 -37 55 -39 57
-55 42 -10 -11 -32 -14 -76 -11 l-62 3 -3 -37 c-2 -20 -9 -39 -17 -41 -10 -3
-12 2 -8 20 8 31 0 40 -25 27 -11 -6 -19 -20 -18 -32 4 -45 1 -54 -14 -34 -14
17 -36 23 -36 9 0 -4 5 -13 12 -20 16 -16 -7 -42 -39 -42 -20 0 -22 3 -13 19
14 27 13 31 -9 31 -23 0 -121 -103 -121 -127 1 -22 24 -55 33 -46 4 3 16 -2
27 -12 15 -13 20 -29 18 -54 -3 -30 1 -37 25 -49 17 -8 26 -19 23 -27 -6 -16
47 -50 93 -60 18 -4 51 -18 74 -31 29 -16 58 -24 92 -24 33 0 62 -7 85 -21 19
-12 42 -23 50 -24 55 -6 111 -19 116 -27 3 -5 1 -14 -4 -21 -8 -9 9 -12 71
-12 45 0 90 -1 100 -4 18 -4 24 -31 7 -31 -5 0 -10 -7 -10 -17 0 -15 1 -15 18
0 10 10 25 17 33 17 8 0 29 9 48 21 18 11 41 18 50 16 21 -5 90 30 98 48 6 18
30 20 35 3 4 -10 10 -10 32 0 15 6 36 12 46 12 11 0 20 7 20 15 0 20 30 32 40
15 11 -18 29 -4 23 19 -6 25 12 35 30 16 9 -8 27 -15 41 -15 28 0 66 -31 66
-53 0 -7 11 -23 25 -35 14 -12 25 -27 25 -33 0 -6 16 -29 35 -52 19 -22 35
-46 35 -52 0 -7 10 -20 21 -31 12 -10 28 -34 36 -52 7 -18 25 -38 38 -44 14
-6 25 -18 25 -25 0 -8 25 -40 55 -71 64 -65 68 -88 12 -84 -40 3 -48 -10 -22
-38 12 -14 13 -19 2 -34 -22 -29 -78 -9 -99 36 -10 20 -26 39 -37 43 -10 3
-27 22 -37 43 -9 20 -25 48 -35 61 -11 13 -19 32 -19 41 0 10 -16 30 -35 44
-19 15 -35 33 -35 41 0 7 -15 32 -34 54 -19 23 -38 50 -41 61 -3 10 -27 31
-53 45 -38 21 -51 24 -70 16 -28 -13 -20 -31 13 -31 28 0 55 -24 55 -50 0 -11
11 -27 25 -36 14 -9 28 -27 31 -41 4 -13 22 -35 40 -50 19 -14 37 -35 40 -47
3 -12 18 -35 35 -50 16 -15 29 -34 29 -43 0 -8 14 -28 30 -45 17 -16 37 -43
46 -60 8 -16 23 -32 32 -35 9 -4 23 -15 30 -25 17 -24 135 -27 126 -4 -8 21
46 46 101 46 35 0 45 4 45 16 0 14 -7 16 -40 11 -26 -3 -43 -1 -50 8 -16 19
15 45 55 45 65 0 85 21 40 42 -34 15 -32 34 5 47 33 11 35 14 19 42 -9 18 -6
22 20 32 28 10 30 15 25 44 -6 29 -3 33 22 38 16 4 33 8 38 9 5 1 -4 15 -20
32 -16 16 -34 39 -40 49 -6 11 -22 22 -35 23 -24 4 -24 4 5 -27 24 -25 27 -33
17 -45 -18 -22 -71 3 -96 46 -50 84 -61 102 -81 127 -22 27 -78 140 -89 178
-7 26 -93 83 -126 83 -23 1 -23 1 -5 15 43 32 136 8 136 -35 0 -24 58 -145 76
-161 8 -6 14 -17 14 -24 0 -8 11 -26 24 -42 13 -15 31 -42 40 -60 9 -18 26
-38 37 -44 20 -10 21 -9 15 17 -4 16 -20 45 -34 64 -45 59 -132 228 -132 256
0 12 -79 69 -109 79 -33 10 -25 25 13 25 50 0 63 -8 102 -58 22 -30 34 -56 34
-77 0 -18 7 -38 15 -45 8 -7 24 -31 35 -54 34 -71 97 -153 108 -142 6 7 -12
45 -40 88 -10 14 -18 33 -18 42 0 8 -11 27 -25 42 -14 15 -28 39 -32 53 -3 14
-14 38 -24 53 -11 14 -19 33 -19 41 0 8 -25 34 -55 57 -30 23 -55 46 -55 50 0
4 17 11 38 15 35 7 36 8 13 16 -23 9 -24 11 -8 27 18 18 17 18 85 -26 19 -13
22 -13 22 1 0 9 -22 25 -50 38 -55 25 -61 34 -28 42 18 5 19 9 9 21 -15 18 -7
36 17 36 16 1 16 2 0 14 -24 17 -23 24 5 29 l22 4 -22 2 c-13 0 -23 8 -23 16
0 17 -30 55 -44 55 -5 0 -14 7 -20 14 -6 8 -23 18 -38 22 l-28 6 0 -58 c0 -46
-2 -55 -12 -45 -16 15 -16 241 -1 274 36 76 64 151 77 203 46 196 53 275 24
313 -23 30 -23 53 0 49 18 -3 17 -5 12 102 -1 19 -6 48 -12 63 -8 20 -8 31 1
40 6 6 11 35 11 65 0 46 -2 53 -14 43 -11 -9 -16 -9 -22 0 -4 7 -2 15 4 17 19
6 14 19 -20 57 -46 49 -58 46 -51 -13 4 -41 2 -50 -12 -56 -15 -5 -16 -4 -5 9
15 18 -2 45 -28 45 -9 0 -26 10 -39 22 -28 26 -43 16 -18 -13 12 -12 15 -23
10 -27 -6 -4 -19 -23 -29 -43 -18 -35 -18 -36 0 -64 17 -26 17 -28 0 -40 -12
-10 -16 -20 -11 -36 4 -13 2 -24 -5 -29 -7 -4 -13 -34 -14 -71 0 -35 -5 -70
-9 -77 -5 -7 -5 -21 -2 -32 4 -11 2 -20 -4 -20 -6 0 -20 -18 -31 -40 -11 -22
-25 -40 -31 -40 -5 0 -17 -17 -25 -37 -8 -21 -21 -51 -28 -68 -8 -16 -17 -43
-21 -58 -3 -18 -11 -27 -19 -24 -7 3 -21 -9 -31 -26 -27 -45 -45 -63 -45 -43
0 8 -8 17 -19 21 -16 5 -18 11 -10 46 6 25 6 47 -1 59 -17 32 -12 64 12 75 13
6 27 28 36 55 8 25 28 65 45 90 45 67 49 142 11 207 -36 62 -41 67 -113 103
-33 17 -63 35 -65 39 -3 4 -20 8 -37 9 -43 1 -48 9 -40 64 5 28 3 53 -3 65
-18 31 -124 167 -142 182 -17 15 -15 38 8 104 7 20 17 37 22 37 4 0 3 7 -5 16
-7 8 -14 25 -15 37 -1 12 -11 47 -23 77 -11 30 -16 57 -10 58 16 6 10 19 -11
25 -11 3 -20 13 -20 23 0 15 8 16 69 11 72 -6 111 -1 111 14 0 5 -9 9 -19 9
-29 0 -51 11 -51 24 0 15 52 66 68 66 12 0 21 -38 25 -102 2 -45 9 -47 43 -13
25 26 44 26 44 0 0 -7 -8 -15 -17 -17 -10 -2 18 -8 63 -12 73 -6 85 -5 117 14
l37 22 0 -25 c0 -20 -4 -24 -20 -20 -15 4 -19 2 -14 -10 4 -10 23 -18 52 -22
26 -3 66 -10 90 -15 42 -10 43 -10 88 35 48 49 69 55 90 28 16 -21 18 -59 4
-68 -15 -9 0 -35 21 -35 11 0 22 -6 25 -14 3 -8 11 -13 18 -10 7 3 19 -2 26
-11 11 -13 11 -20 0 -39 -7 -13 -10 -28 -6 -34 9 -15 54 -20 66 -8 8 8 10 4 7
-14 -2 -14 -2 -19 0 -12 3 8 12 11 20 8 12 -5 14 -1 9 16 -15 50 -18 88 -9 88
20 0 35 -30 42 -84 7 -51 6 -54 -11 -45 -22 12 -23 6 -2 -25 9 -14 11 -27 5
-30 -5 -3 -7 -15 -4 -26 3 -11 0 -27 -7 -35 -14 -17 -18 -113 -7 -158 5 -18 1
-40 -13 -69 -13 -28 -17 -45 -10 -53 7 -8 5 -21 -5 -41 -13 -26 -13 -31 5 -59
23 -37 58 -56 89 -48 19 5 22 10 17 38 -5 24 -2 36 13 49 12 11 21 14 26 7 11
-18 28 -12 22 8 -3 14 -1 18 9 14 24 -9 29 28 7 47 -32 26 -36 54 -15 102 11
24 22 52 24 63 2 12 13 21 28 23 24 4 80 54 80 73 0 5 4 17 9 27 6 9 13 34 16
55 3 20 10 37 15 37 18 0 59 87 75 160 9 41 28 120 42 176 31 125 26 144 -42
144 -43 0 -58 11 -34 26 7 4 -1 12 -20 20 -27 11 -30 16 -25 43 4 19 1 37 -10
52 -20 29 -21 60 -2 53 9 -3 16 4 20 22 8 32 -3 132 -15 140 -5 3 -9 21 -9 40
0 25 -4 34 -16 34 -13 0 -15 -8 -12 -40 5 -51 -15 -53 -30 -2 -13 43 -25 147
-25 215 0 26 -3 47 -6 47 -3 0 -7 36 -8 80 -2 67 0 80 14 80 11 0 14 6 8 23
-3 12 -9 33 -11 47 -5 24 -5 24 10 6 16 -19 16 -19 18 5 1 27 1 25 -7 134 -8
109 -24 205 -41 237 -8 14 -14 38 -14 52 0 28 -37 106 -50 106 -5 0 -12 9 -15
21 -6 18 -54 78 -119 149 -13 14 -35 43 -50 65 -15 22 -37 54 -49 70 -28 37
-141 145 -152 145 -5 0 -23 15 -40 33 -62 64 -177 157 -203 164 -30 7 -96 41
-139 70 -48 34 -155 83 -180 83 -13 0 -31 4 -41 10 -9 5 -60 23 -113 39 -107
32 -251 47 -309 30z m-355 -439 c3 -5 1 -10 -4 -10 -6 0 -11 5 -11 10 0 6 2
10 4 10 3 0 8 -4 11 -10z m30 -60 c4 -6 -7 -10 -25 -10 -18 0 -29 4 -25 10 3
6 15 10 25 10 10 0 22 -4 25 -10z m50 -69 c3 -5 1 -12 -5 -16 -5 -3 -10 1 -10
9 0 18 6 21 15 7z m295 -129 c0 -15 -50 -76 -73 -89 -12 -7 -31 -12 -41 -13
-17 0 -18 2 -4 18 9 9 18 26 20 37 5 28 98 72 98 47z m-1206 -27 c-7 -16 -24
-21 -24 -6 0 8 7 13 27 20 1 1 0 -6 -3 -14z m1556 -137 c0 -6 -7 -7 -16 -4 -9
3 -25 6 -37 7 -20 1 -20 2 3 8 28 9 50 4 50 -11z m549 -1372 c28 -15 24 -18
-44 -36 -27 -8 -53 -18 -56 -23 -8 -12 -187 -22 -225 -13 -36 9 -23 20 61 46
163 51 207 56 264 26z m-321 -164 c4 -14 -34 -16 -42 -3 -6 10 13 21 28 17 6
-1 12 -8 14 -14z m-260 -24 c-6 -16 -36 -34 -44 -25 -9 9 15 37 33 37 8 0 13
-5 11 -12z m732 -48 c0 -11 -7 -20 -15 -20 -8 0 -15 9 -15 20 0 11 7 20 15 20
8 0 15 -9 15 -20z m337 -46 c-3 -3 -12 -4 -19 -1 -8 3 -5 6 6 6 11 1 17 -2 13
-5z m-171 -160 c-4 -12 -10 -14 -17 -7 -5 5 -7 17 -3 27 4 12 10 14 17 7 5 -5
7 -17 3 -27z m-89 -569 c-4 -8 -11 -15 -17 -15 -6 0 -6 7 2 20 14 22 24 19 15
-5z m-48 -30 c22 -23 24 -24 36 -8 12 16 13 15 18 -3 7 -20 4 -71 -5 -79 -5
-5 -68 69 -68 81 0 4 -8 13 -17 20 -15 11 -15 13 -3 14 8 0 26 -12 39 -25z
m76 -172 c-7 -21 -21 -7 -31 31 l-7 29 22 -22 c14 -14 20 -29 16 -38z m-525
-119 c7 -17 6 -32 -1 -46 -9 -17 -8 -23 5 -30 13 -7 14 -13 4 -31 -6 -12 -20
-30 -31 -39 -11 -10 -15 -18 -8 -18 7 0 11 -10 9 -22 -2 -13 -9 -22 -17 -20
-8 2 -17 -2 -21 -8 -11 -18 -68 21 -73 49 -6 32 9 66 37 80 12 7 34 34 49 61
16 28 30 50 33 50 2 0 9 -12 14 -26z m-33 -271 c-3 -3 -11 -2 -17 2 -8 5 -7
11 2 22 12 15 13 14 16 -1 2 -10 1 -20 -1 -23z m-167 -30 c0 -14 -9 -18 -37
-19 -21 -1 -45 -3 -53 -5 -25 -7 -24 15 1 28 37 20 89 17 89 -4z m647 -895
c15 -7 25 -24 29 -47 4 -20 15 -47 25 -60 11 -13 19 -29 19 -36 0 -7 14 -29
30 -50 17 -21 30 -43 30 -50 0 -7 11 -20 24 -28 13 -9 27 -28 31 -44 7 -31 32
-63 49 -64 17 0 58 -58 53 -73 -5 -12 -12 -12 -41 -2 -25 9 -46 28 -75 73 -23
33 -41 68 -41 77 0 9 -10 21 -21 28 -12 7 -39 48 -60 92 -50 103 -116 176
-160 176 -27 0 -30 2 -19 15 14 17 86 13 127 -7z m-91 -57 c37 -23 82 -82 124
-166 51 -100 61 -116 76 -122 8 -3 23 -22 34 -42 10 -20 39 -56 64 -79 26 -26
42 -50 39 -58 -7 -18 -12 -18 -57 1 -20 8 -36 21 -36 27 0 7 -13 26 -28 43
-16 16 -35 46 -42 65 -17 44 -59 110 -83 130 -10 8 -23 31 -30 50 -7 19 -26
54 -42 77 -28 39 -33 42 -85 45 l-55 3 23 23 c27 27 57 28 98 3z m-32 -91 c20
-22 36 -45 36 -51 0 -6 14 -27 30 -46 17 -18 30 -42 30 -53 0 -11 12 -25 26
-33 26 -14 57 -58 94 -133 11 -23 32 -50 47 -60 27 -17 62 -54 63 -64 0 -3 -4
-11 -8 -18 -13 -20 -82 12 -82 39 0 11 -16 35 -35 52 -19 17 -35 36 -35 43 0
7 -12 22 -27 34 -16 12 -37 38 -48 59 -57 108 -75 138 -88 149 -8 7 -20 25
-27 41 -10 24 -19 29 -56 34 -55 6 -65 14 -40 33 38 27 80 18 120 -26z"/>
<path d="M3450 1909 c-8 -5 -13 -9 -10 -10 3 0 13 -2 23 -4 9 -2 17 1 17 5 0
15 -15 19 -30 9z"/>
<path d="M2505 4930 c-3 -5 -1 -10 4 -10 6 0 11 5 11 10 0 6 -2 10 -4 10 -3 0
-8 -4 -11 -10z"/>
<path d="M2980 4719 c0 -18 2 -19 15 -9 8 7 15 16 15 21 0 5 -7 9 -15 9 -9 0
-15 -9 -15 -21z"/>
<path d="M1576 4315 c-22 -17 -17 -29 8 -19 9 3 16 12 16 20 0 17 0 17 -24 -1z"/>
<path d="M1563 4179 c-13 -5 -23 -13 -23 -19 0 -16 40 -12 47 5 8 21 2 24 -24
14z"/>
<path d="M3790 4180 c0 -5 5 -10 10 -10 6 0 10 5 10 10 0 6 -4 10 -10 10 -5 0
-10 -4 -10 -10z"/>
<path d="M4382 4082 c-10 -24 -9 -38 6 -87 24 -80 43 -85 37 -8 -7 75 -16 123
-24 123 -3 0 -12 -13 -19 -28z"/>
<path d="M1494 4033 c-11 -21 -19 -30 -22 -22 -11 42 -12 42 -32 24 -11 -10
-20 -26 -20 -35 0 -9 -7 -25 -15 -36 -8 -10 -15 -29 -15 -41 0 -12 -7 -26 -17
-31 -16 -9 -26 -52 -39 -169 -9 -73 11 -69 27 5 17 73 70 164 132 225 37 36
46 51 38 60 -5 7 -8 23 -4 35 9 36 -14 25 -33 -15z"/>
<path d="M1390 4010 c0 -5 5 -10 10 -10 6 0 10 5 10 10 0 6 -4 10 -10 10 -5 0
-10 -4 -10 -10z"/>
<path d="M4442 3740 c0 -14 2 -19 5 -12 2 6 2 18 0 25 -3 6 -5 1 -5 -13z"/>
<path d="M4401 3734 c0 -11 3 -14 6 -6 3 7 2 16 -1 19 -3 4 -6 -2 -5 -13z"/>
<path d="M1365 3650 c-3 -5 -12 -7 -19 -4 -27 10 -40 -139 -18 -195 7 -19 11
-42 9 -53 -4 -14 0 -18 19 -18 18 0 24 5 24 23 0 13 14 36 33 53 17 17 38 42
46 56 11 22 11 29 -4 52 -19 28 -34 33 -53 14 -9 -9 -12 -9 -12 0 0 7 5 12 10
12 14 0 13 43 -2 58 -14 14 -25 15 -33 2z"/>
<path d="M2122 3478 c2 -6 33 -22 68 -36 36 -14 102 -40 148 -59 55 -23 92
-33 108 -29 14 4 37 0 54 -9 18 -9 31 -11 35 -5 3 6 -5 14 -19 20 -14 5 -42
34 -61 65 -35 53 -37 55 -83 56 -26 1 -93 3 -150 4 -69 2 -102 0 -100 -7z"/>
<path d="M1428 3373 c-27 -28 -38 -80 -21 -96 13 -13 54 63 51 94 l-3 31 -27
-29z"/>
<path d="M2225 3314 c-111 -11 -125 -15 -171 -55 -25 -21 -49 -39 -55 -39 -5
0 -9 -4 -9 -10 0 -5 14 -10 31 -10 22 0 43 11 70 35 22 19 48 35 59 35 17 0
20 -7 20 -39 0 -46 29 -74 65 -65 15 4 24 0 28 -10 4 -10 18 -16 38 -16 25 0
30 -3 25 -16 -6 -15 2 -16 71 -10 85 8 88 9 78 26 -5 8 -21 10 -46 6 -23 -4
-40 -2 -45 5 -9 15 16 89 31 89 6 0 24 -13 40 -30 50 -52 73 -34 35 28 -35 57
-143 87 -265 76z m5 -83 c0 -6 -4 -13 -10 -16 -5 -3 -10 1 -10 9 0 9 5 16 10
16 6 0 10 -4 10 -9z m35 -1 c-3 -5 -10 -10 -16 -10 -5 0 -9 5 -9 10 0 6 7 10
16 10 8 0 12 -4 9 -10z"/>
<path d="M3235 3020 c-4 -6 9 -10 31 -10 42 0 42 4 2 14 -15 3 -30 2 -33 -4z"/>
<path d="M1490 2900 c0 -22 2 -40 4 -40 2 0 6 18 8 40 2 22 0 40 -4 40 -5 0
-8 -18 -8 -40z"/>
<path d="M4373 2561 c-8 -31 -8 -38 2 -34 7 2 16 15 19 29 9 34 9 38 -2 42 -5
1 -14 -15 -19 -37z"/>
<path d="M2514 2372 c-26 -16 -78 -132 -53 -116 6 3 22 -5 36 -17 20 -20 37
-24 91 -26 37 -1 78 -3 92 -4 14 -1 33 1 43 5 14 7 17 3 17 -18 0 -25 2 -26
45 -23 25 2 48 7 51 10 3 3 3 24 -1 47 -5 31 -14 44 -37 56 -27 14 -31 14 -47
0 -25 -23 -27 -20 -23 19 4 32 2 35 -21 35 -17 0 -27 -7 -31 -22 l-7 -23 -9
23 c-7 17 -15 22 -29 17 -12 -3 -21 0 -25 10 -3 8 -16 15 -30 15 -14 0 -28 5
-31 10 -7 12 -16 12 -31 2z"/>
<path d="M2153 2304 c4 -7 0 -17 -8 -24 -8 -7 -15 -20 -15 -29 1 -14 2 -14 14
2 9 12 16 14 21 8 12 -21 35 -11 35 15 0 15 -4 23 -10 19 -6 -4 -18 -1 -27 7
-9 7 -14 8 -10 2z"/>
<path d="M2243 2284 c-17 -18 -16 -34 1 -34 16 0 27 22 18 37 -5 7 -11 6 -19
-3z"/>
<path d="M2050 2234 c0 -8 5 -12 10 -9 6 3 10 10 10 16 0 5 -4 9 -10 9 -5 0
-10 -7 -10 -16z"/>
<path d="M4090 2225 c0 -8 5 -15 10 -15 6 0 10 7 10 15 0 8 -4 15 -10 15 -5 0
-10 -7 -10 -15z"/>
<path d="M2192 2163 c-24 -3 -32 -9 -30 -21 4 -23 182 -192 202 -192 20 0 21
34 1 50 -21 17 -19 48 3 46 18 -1 18 3 6 77 -6 35 -8 37 -43 37 -20 0 -52 2
-71 4 -19 2 -50 2 -68 -1z"/>
<path d="M2086 2128 c-7 -21 -8 -21 -15 -5 -6 18 -8 18 -21 2 -11 -13 -11 -18
-1 -25 10 -6 10 -9 1 -12 -13 -4 4 -57 41 -131 10 -22 19 -48 19 -59 0 -41 22
-10 26 37 12 143 11 165 -8 159 -15 -4 -18 0 -18 25 0 36 -15 41 -24 9z"/>
<path d="M1696 1808 c-11 -15 -13 -25 -5 -33 12 -12 29 10 29 38 0 23 -6 22
-24 -5z"/>
<path d="M2125 1800 c4 -6 11 -8 16 -5 14 9 11 15 -7 15 -8 0 -12 -5 -9 -10z"/>
<path d="M1740 1751 c0 -11 -13 -25 -31 -33 -22 -11 -26 -17 -16 -21 10 -4 13
-13 10 -26 -4 -17 -1 -19 23 -17 27 3 29 6 31 60 1 31 -2 56 -7 56 -6 0 -10
-8 -10 -19z"/>
<path d="M1922 1750 c0 -14 2 -19 5 -12 2 6 2 18 0 25 -3 6 -5 1 -5 -13z"/>
<path d="M1792 1628 c-22 -22 -14 -48 13 -48 15 0 25 6 25 14 0 8 3 21 6 30 7
19 -26 22 -44 4z"/>
<path d="M1793 1537 c-15 -31 6 -50 30 -27 16 16 16 18 -1 33 -18 16 -19 16
-29 -6z"/>
<path d="M2651 1337 c-8 -15 -11 -30 -8 -34 12 -12 29 14 25 38 -3 22 -3 22
-17 -4z"/>
<path d="M2680 1205 c0 -8 5 -15 10 -15 6 0 10 7 10 15 0 8 -4 15 -10 15 -5 0
-10 -7 -10 -15z"/>
<path d="M2350 1190 c0 -5 4 -10 9 -10 6 0 13 5 16 10 3 6 -1 10 -9 10 -9 0
-16 -4 -16 -10z"/>
<path d="M2322 1114 c-15 -13 -21 -24 -14 -24 6 0 12 -6 12 -14 0 -8 6 -16 14
-19 9 -4 12 -14 9 -26 -4 -15 -1 -21 12 -21 12 0 15 5 10 20 -4 12 -1 28 6 36
6 8 9 18 5 21 -4 4 -11 2 -15 -5 -6 -10 -10 -10 -20 2 -11 13 -8 16 20 23 18
5 34 14 36 20 7 20 -49 11 -75 -13z"/>
<path d="M4111 975 c24 -40 40 -46 32 -12 -8 29 -22 47 -39 47 -10 0 -8 -9 7
-35z"/>
<path d="M4200 991 c0 -6 5 -13 10 -16 6 -3 10 1 10 9 0 9 -4 16 -10 16 -5 0
-10 -4 -10 -9z"/>
<path d="M2310 954 c0 -8 5 -12 10 -9 6 3 10 10 10 16 0 5 -4 9 -10 9 -5 0
-10 -7 -10 -16z"/>
<path d="M4187 954 c-13 -13 -7 -47 11 -63 10 -9 24 -31 31 -48 8 -18 17 -33
21 -33 15 0 5 107 -12 131 -13 19 -17 20 -17 7 -1 -9 4 -20 9 -23 12 -7 14
-35 2 -35 -4 0 -14 16 -23 35 -8 20 -18 33 -22 29z"/>
<path d="M4158 895 c2 -16 10 -36 16 -43 10 -10 12 -7 8 18 -2 16 -8 30 -12
30 -5 0 -10 6 -13 13 -2 6 -2 -1 1 -18z"/>
<path d="M1835 880 c6 -27 4 -30 -19 -30 -25 0 -25 0 -8 -30 14 -25 15 -31 3
-42 -11 -10 -14 -10 -18 0 -3 6 -11 12 -19 12 -10 0 -7 -8 11 -25 31 -32 33
-65 5 -65 -24 0 -24 3 -4 -51 8 -24 14 -65 13 -91 -2 -31 2 -53 13 -65 8 -10
22 -36 29 -58 8 -22 21 -47 29 -55 23 -23 63 -81 84 -122 10 -21 34 -47 53
-58 18 -10 33 -26 33 -34 0 -7 21 -33 46 -57 25 -24 61 -59 79 -77 18 -19 40
-32 49 -30 10 2 -15 38 -85 117 -99 114 -153 191 -188 273 -20 46 -53 200 -71
338 -6 46 -14 89 -18 94 -3 6 -5 27 -3 48 1 23 -3 38 -9 38 -8 0 -9 -11 -5
-30z"/>
<path d="M2430 839 c0 -5 5 -7 10 -4 6 3 10 8 10 11 0 2 -4 4 -10 4 -5 0 -10
-5 -10 -11z"/>
<path d="M4213 797 c4 -10 7 -23 7 -28 0 -5 5 -9 10 -9 16 0 12 26 -7 41 -15
12 -16 12 -10 -4z"/>
<path d="M4271 682 c6 -17 17 -33 25 -36 12 -4 12 -1 1 26 -17 43 -40 51 -26
10z"/>
<path d="M4360 670 c0 -5 5 -10 11 -10 5 0 7 5 4 10 -3 6 -8 10 -11 10 -2 0
-4 -4 -4 -10z"/>
<path d="M4330 621 c0 -13 28 -33 41 -29 8 3 6 9 -5 21 -19 18 -36 22 -36 8z"/>
<path d="M3595 600 c-6 -10 34 -30 60 -30 29 0 141 -152 164 -221 6 -19 21
-39 33 -44 12 -6 29 -22 37 -37 36 -60 114 -148 131 -148 22 0 0 54 -36 87
-19 18 -34 41 -34 52 0 11 -11 28 -24 38 -13 10 -30 33 -39 49 -9 17 -27 39
-41 48 -14 9 -29 28 -32 43 -4 15 -21 48 -37 75 -23 37 -39 51 -69 60 -21 6
-43 17 -49 25 -13 15 -55 17 -64 3z"/>
<path d="M4310 550 c0 -5 9 -14 20 -20 22 -12 27 -1 8 18 -14 14 -28 16 -28 2z"/>
<path d="M4340 489 c0 -11 7 -22 15 -25 8 -3 17 -14 20 -25 6 -18 9 -17 37 12
22 22 28 33 20 41 -8 8 -13 7 -18 -6 -6 -15 -9 -15 -40 3 -34 20 -34 20 -34 0z"/>
<path d="M3497 461 c-16 -6 -16 -9 8 -31 15 -14 36 -42 46 -63 11 -21 27 -41
35 -44 8 -3 22 -19 30 -36 9 -16 29 -41 45 -54 16 -14 29 -31 29 -38 0 -7 14
-29 30 -50 17 -21 30 -42 30 -47 0 -6 21 -30 46 -54 34 -34 52 -44 71 -42 l26
3 -31 30 c-17 17 -35 42 -41 58 -6 15 -22 32 -35 37 -16 6 -28 21 -35 45 -5
20 -22 51 -38 70 -15 19 -44 55 -63 80 -47 63 -121 145 -129 144 -3 0 -14 -4
-24 -8z"/>
<path d="M4608 453 c6 -2 18 -2 25 0 6 3 1 5 -13 5 -14 0 -19 -2 -12 -5z"/>
<path d="M4548 433 c6 -2 18 -2 25 0 6 3 1 5 -13 5 -14 0 -19 -2 -12 -5z"/>
<path d="M4486 405 c-3 -8 -14 -15 -25 -15 -11 0 -22 -4 -25 -8 -8 -14 11 -35
25 -28 37 17 73 43 77 54 6 18 -45 15 -52 -3z"/>
<path d="M4708 413 c7 -3 16 -2 19 1 4 3 -2 6 -13 5 -11 0 -14 -3 -6 -6z"/>
<path d="M3413 384 c-3 -9 4 -27 16 -42 12 -15 28 -41 36 -59 8 -17 23 -34 34
-38 10 -3 24 -19 31 -36 7 -16 30 -43 51 -60 22 -17 39 -37 39 -45 0 -8 14
-23 30 -32 17 -9 36 -29 43 -44 8 -19 19 -28 34 -28 33 0 31 42 -2 64 -14 10
-30 27 -36 39 -6 12 -24 30 -40 39 -16 10 -35 31 -40 47 -6 16 -21 37 -34 45
-13 9 -27 26 -30 38 -4 13 -17 34 -30 48 -13 14 -35 37 -49 53 -28 31 -44 34
-53 11z"/>
<path d="M4624 376 c-32 -11 -38 -19 -32 -37 5 -14 38 0 38 17 0 8 10 14 26
14 14 0 23 4 19 10 -7 12 -10 11 -51 -4z"/>
<path d="M1840 330 c0 -5 7 -10 16 -10 8 0 12 5 9 10 -3 6 -10 10 -16 10 -5 0
-9 -4 -9 -10z"/>
<path d="M4350 325 c0 -17 43 -31 61 -19 9 5 7 11 -6 21 -25 17 -55 17 -55 -2z"/>
<path d="M4745 330 c3 -5 12 -7 20 -3 21 7 19 13 -6 13 -11 0 -18 -4 -14 -10z"/>
<path d="M3340 287 c0 -14 14 -36 35 -54 19 -17 35 -40 35 -52 0 -11 5 -23 10
-26 6 -4 16 -21 24 -39 8 -20 25 -37 44 -45 19 -8 35 -24 41 -42 8 -24 15 -29
45 -29 29 0 33 3 29 20 -3 10 -20 28 -39 39 -19 11 -34 27 -34 36 0 8 -14 30
-31 47 -17 18 -33 45 -36 61 -3 15 -13 33 -22 40 -9 7 -24 24 -34 40 -23 35
-67 38 -67 4z"/>
<path d="M4683 303 c-7 -2 -13 -9 -13 -15 0 -14 43 -6 48 10 4 12 -12 15 -35
5z"/>
<path d="M4484 265 c11 -8 22 -12 25 -9 6 6 -19 24 -34 24 -5 -1 -1 -7 9 -15z"/>
<path d="M4323 253 c-20 -7 -15 -19 12 -31 24 -11 55 -7 55 7 0 7 -47 33 -53
30 -1 0 -8 -3 -14 -6z"/>
<path d="M4570 251 c0 -12 48 -27 57 -17 9 8 2 13 -30 21 -17 5 -27 3 -27 -4z"/>
<path d="M4771 241 c-7 -5 -11 -14 -7 -19 9 -15 36 -4 36 14 0 16 -9 18 -29 5z"/>
<path d="M4927 244 c-4 -4 -4 -10 -1 -15 6 -10 34 0 34 12 0 10 -24 12 -33 3z"/>
<path d="M3277 223 c-16 -15 -5 -44 28 -77 19 -20 35 -42 35 -49 0 -8 11 -26
25 -41 14 -15 25 -34 25 -42 0 -9 10 -14 30 -14 28 0 29 2 23 33 -3 17 -14 41
-24 53 -11 11 -19 25 -19 31 0 7 -13 21 -30 33 -16 12 -30 27 -30 34 0 26 -47
56 -63 39z"/>
<path d="M4460 221 c0 -9 24 -21 43 -21 6 0 2 7 -9 15 -22 17 -34 19 -34 6z"/>
<path d="M4871 189 c-1 -9 -14 -22 -31 -29 -34 -14 -40 -30 -11 -30 21 0 55
45 47 63 -2 7 -5 5 -5 -4z"/>
<path d="M5025 189 c-4 -6 -4 -13 -1 -16 8 -8 36 5 36 17 0 13 -27 13 -35 -1z"/>
<path d="M3125 180 c-3 -6 1 -13 10 -16 19 -8 30 0 20 15 -8 14 -22 14 -30 1z"/>
<path d="M4590 180 c19 -13 30 -13 30 0 0 6 -10 10 -22 10 -19 0 -20 -2 -8
-10z"/>
<path d="M4690 155 c7 -8 22 -15 33 -15 20 0 20 0 1 15 -27 20 -51 20 -34 0z"/>
<path d="M4315 150 c-4 -6 8 -10 30 -10 22 0 34 4 30 10 -3 6 -17 10 -30 10
-13 0 -27 -4 -30 -10z"/>
<path d="M3192 123 c7 -16 25 -44 40 -63 15 -19 28 -40 28 -47 0 -8 14 -13 40
-13 22 0 40 5 40 10 0 13 -37 50 -50 50 -5 0 -18 17 -29 39 -19 37 -37 51 -67
51 -11 0 -11 -5 -2 -27z"/>
<path d="M4454 135 c24 -18 49 -20 44 -2 -3 6 -18 13 -34 15 -28 2 -28 2 -10
-13z"/>
<path d="M4575 120 c-8 -13 28 -30 43 -21 9 5 5 11 -12 19 -15 7 -28 7 -31 2z"/>
<path d="M5118 123 c7 -3 16 -2 19 1 4 3 -2 6 -13 5 -11 0 -14 -3 -6 -6z"/>
<path d="M1351 94 c0 -11 3 -14 6 -6 3 7 2 16 -1 19 -3 4 -6 -2 -5 -13z"/>
<path d="M3042 93 c2 -9 17 -20 35 -25 21 -5 36 -18 45 -38 10 -24 19 -30 45
-30 42 0 35 19 -15 48 -21 12 -46 30 -57 42 -22 25 -58 27 -53 3z"/>
<path d="M4670 76 c15 -14 32 -19 59 -17 25 2 -21 30 -49 31 -21 0 -22 -2 -10
-14z"/>
<path d="M4295 70 c-7 -11 39 -25 55 -15 5 3 8 11 5 16 -8 12 -52 12 -60 -1z"/>
<path d="M5435 70 c-3 -5 -1 -10 4 -10 6 0 11 5 11 10 0 6 -2 10 -4 10 -3 0
-8 -4 -11 -10z"/>
<path d="M2050 61 c0 -18 18 -21 30 -6 10 13 9 15 -9 15 -11 0 -21 -4 -21 -9z"/>
<path d="M4430 56 c0 -11 9 -16 26 -16 31 0 28 23 -4 28 -15 2 -22 -2 -22 -12z"/>
<path d="M4818 63 c6 -2 18 -2 25 0 6 3 1 5 -13 5 -14 0 -19 -2 -12 -5z"/>
<path d="M4938 63 c7 -3 16 -2 19 1 4 3 -2 6 -13 5 -11 0 -14 -3 -6 -6z"/>
<path d="M5208 63 c7 -3 16 -2 19 1 4 3 -2 6 -13 5 -11 0 -14 -3 -6 -6z"/>
<path d="M4554 39 c-8 -13 3 -24 34 -34 28 -8 31 20 3 35 -25 13 -28 13 -37
-1z"/>
<path d="M5065 40 c4 -6 11 -8 16 -5 14 9 11 15 -7 15 -8 0 -12 -5 -9 -10z"/>
<path d="M2992 18 c3 -7 19 -14 38 -16 30 -3 31 -2 17 12 -19 19 -61 22 -55 4z"/>
<path d="M4178 3 c7 -3 16 -2 19 1 4 3 -2 6 -13 5 -11 0 -14 -3 -6 -6z"/>
</g>
</svg>
